<?xml version="1.0" encoding="UTF-8"?>
<svg version="1.1" xmlns="http://www.w3.org/2000/svg" width="64" height="64">
<path d="M0 0 C1.8871875 0.0309375 1.8871875 0.0309375 3.8125 0.0625 C3.8125 1.3825 3.8125 2.7025 3.8125 4.0625 C-0.6425 4.5575 -0.6425 4.5575 -5.1875 5.0625 C-5.1875 14.3025 -5.1875 23.5425 -5.1875 33.0625 C6.6925 33.0625 18.5725 33.0625 30.8125 33.0625 C30.8125 23.8225 30.8125 14.5825 30.8125 5.0625 C27.8425 4.7325 24.8725 4.4025 21.8125 4.0625 C21.8125 2.7425 21.8125 1.4225 21.8125 0.0625 C27.19672078 -0.21127394 30.35703408 -0.31285297 34.8125 3.0625 C37.44434006 5.69434006 36.13046166 12.97090751 36.16259766 16.7355957 C36.17913864 18.15666095 36.20640521 19.57764363 36.24462891 20.99829102 C36.29949011 23.04747641 36.32128303 25.09470974 36.3359375 27.14453125 C36.3656665 28.98881714 36.3656665 28.98881714 36.39599609 30.87036133 C35.8125 34.0625 35.8125 34.0625 33.79150391 36.46166992 C30.02628542 38.48498885 26.79696748 38.6390338 22.625 38.59375 C21.84487549 38.5975769 21.06475098 38.60140381 20.26098633 38.60534668 C18.61701156 38.60806005 16.97299319 38.60073905 15.32910156 38.58398438 C12.81997977 38.56256386 10.31372078 38.58380273 7.8046875 38.609375 C6.20311871 38.60673162 4.6015517 38.60160642 3 38.59375 C2.25403564 38.60184692 1.50807129 38.60994385 0.73950195 38.61828613 C-2.75192019 38.55577526 -5.07500097 38.12320922 -8.16210938 36.45727539 C-10.86665532 33.25948234 -10.80546638 31.37097912 -10.78125 27.21484375 C-10.78129028 26.56173721 -10.78133057 25.90863068 -10.78137207 25.23573303 C-10.77602651 23.85977516 -10.75848403 22.48381709 -10.72949219 21.1081543 C-10.68755568 19.00279527 -10.6884303 16.90062901 -10.6953125 14.79492188 C-10.61588393 4.65542514 -10.61588393 4.65542514 -8.84570312 2.20532227 C-5.94429855 0.20569405 -3.41151144 -0.05592642 0 0 Z " fill="#000000" transform="translate(19.1875,21.9375)"/>
<path d="M0 0 C3.67285647 1.27503307 6.0824407 2.67175365 8.8125 5.4375 C9.41707031 6.03433594 10.02164063 6.63117187 10.64453125 7.24609375 C12 9 12 9 12 12 C8.30706264 11.3405469 7.29427421 10.47070566 4 8 C3.67 17.24 3.34 26.48 3 36 C2.01 36 1.02 36 0 36 C-0.33 26.43 -0.66 16.86 -1 7 C-2.65 8.65 -4.3 10.3 -6 12 C-6.99 12 -7.98 12 -9 12 C-8.45015228 8.12488273 -6.72444669 6.40423494 -3.9375 3.75 C-3.20402344 3.04359375 -2.47054688 2.3371875 -1.71484375 1.609375 C-1.14894531 1.07828125 -0.58304688 0.5471875 0 0 Z " fill="#000000" transform="translate(31,4)"/>
</svg>
